<svg xmlns="http://www.w3.org/2000/svg" viewBox="0 0 779.8274009553841 350.98440262940255" width="779.8274009553841" height="350.98440262940255"><rect x="0" y="0" width="779.8274009553841" height="350.98440262940255" fill="white"/><g transform="translate(25 25)"><g><g><line x1="0" y1="25" x2="620" y2="25" stroke="black" stroke-width="2"/><polyline points="610,19.226497308103742 620,25 610,30.773502691896258" fill="none" stroke="black" stroke-width="2" stroke-linecap="square"/></g><g transform="translate(550 0)"><ellipse cx="20" cy="25" rx="19" ry="19" fill="hsl(321, 60%, 80%)" stroke="black" stroke-width="2"/><text x="0" y="0" fill="black" font-family="Arial, Helvetica, sans-serif" font-size="18px" font-weight="normal" font-style="normal" dominant-baseline="middle" text-anchor="middle" transform="translate(20 25)">a</text></g><g transform="translate(490 0)"><ellipse cx="20" cy="25" rx="19" ry="19" fill="hsl(321, 60%, 80%)" stroke="black" stroke-width="2"/><text x="0" y="0" fill="black" font-family="Arial, Helvetica, sans-serif" font-size="18px" font-weight="normal" font-style="normal" dominant-baseline="middle" text-anchor="middle" transform="translate(20 25)">a</text></g><g transform="translate(430 0)"><ellipse cx="20" cy="25" rx="19" ry="19" fill="hsl(32, 60%, 80%)" stroke="black" stroke-width="2"/><text x="0" y="0" fill="black" font-family="Arial, Helvetica, sans-serif" font-size="18px" font-weight="normal" font-style="normal" dominant-baseline="middle" text-anchor="middle" transform="translate(20 25)">c</text></g><g transform="translate(370 0)"><ellipse cx="20" cy="25" rx="19" ry="19" fill="hsl(32, 60%, 80%)" stroke="black" stroke-width="2"/><text x="0" y="0" fill="black" font-family="Arial, Helvetica, sans-serif" font-size="18px" font-weight="normal" font-style="normal" dominant-baseline="middle" text-anchor="middle" transform="translate(20 25)">c</text></g><g transform="translate(310 0)"><ellipse cx="20" cy="25" rx="19" ry="19" fill="hsl(44, 60%, 80%)" stroke="black" stroke-width="2"/><text x="0" y="0" fill="black" font-family="Arial, Helvetica, sans-serif" font-size="18px" font-weight="normal" font-style="normal" dominant-baseline="middle" text-anchor="middle" transform="translate(20 25)">b</text></g><g transform="translate(250 0)"><ellipse cx="20" cy="25" rx="19" ry="19" fill="hsl(44, 60%, 80%)" stroke="black" stroke-width="2"/><text x="0" y="0" fill="black" font-family="Arial, Helvetica, sans-serif" font-size="18px" font-weight="normal" font-style="normal" dominant-baseline="middle" text-anchor="middle" transform="translate(20 25)">b</text></g><g transform="translate(190 0)"><ellipse cx="20" cy="25" rx="19" ry="19" fill="hsl(321, 60%, 80%)" stroke="black" stroke-width="2"/><text x="0" y="0" fill="black" font-family="Arial, Helvetica, sans-serif" font-size="18px" font-weight="normal" font-style="normal" dominant-baseline="middle" text-anchor="middle" transform="translate(20 25)">a</text></g><g transform="translate(130 0)"><ellipse cx="20" cy="25" rx="19" ry="19" fill="hsl(321, 60%, 80%)" stroke="black" stroke-width="2"/><text x="0" y="0" fill="black" font-family="Arial, Helvetica, sans-serif" font-size="18px" font-weight="normal" font-style="normal" dominant-baseline="middle" text-anchor="middle" transform="translate(20 25)">a</text></g><g transform="translate(70 0)"><ellipse cx="20" cy="25" rx="19" ry="19" fill="hsl(321, 60%, 80%)" stroke="black" stroke-width="2"/><text x="0" y="0" fill="black" font-family="Arial, Helvetica, sans-serif" font-size="18px" font-weight="normal" font-style="normal" dominant-baseline="middle" text-anchor="middle" transform="translate(20 25)">a</text></g></g><g transform="translate(0 70)"><rect x="0" y="10" width="729.8274009553841" height="48" fill="white" stroke="black" stroke-width="2" rx="0"/><text x="364.91370047769203" y="35" fill="black" font-family="Arial, Helvetica, sans-serif" font-size="24px" font-weight="normal" font-style="normal" dominant-baseline="middle" text-anchor="middle" width="729.8274009553841">AdjacentGroupBy</text></g><g transform="translate(0 158.77641290737884)"><g><line x1="0" y1="25" x2="560" y2="25" stroke="black" stroke-width="2"/><polyline points="550,19.226497308103742 560,25 550,30.773502691896258" fill="none" stroke="black" stroke-width="2" stroke-linecap="square"/></g><g transform="rotate(18 510 25) translate(510 0)"><g><line x1="0" y1="25" x2="239.2632003628881" y2="25" stroke="black" stroke-width="2"/><polyline points="229.2632003628881,19.226497308103742 239.2632003628881,25 229.2632003628881,30.773502691896258" fill="none" stroke="black" stroke-width="2" stroke-linecap="square"/></g><g transform="translate(169.2632003628881 0)"><ellipse cx="20" cy="25" rx="19" ry="19" fill="hsl(321, 60%, 80%)" stroke="black" stroke-width="2"/><text x="0" y="0" fill="black" font-family="Arial, Helvetica, sans-serif" font-size="18px" font-weight="normal" font-style="normal" dominant-baseline="middle" text-anchor="middle" transform="translate(20 25)">a</text></g><g transform="translate(106.17546690859206 0)"><ellipse cx="20" cy="25" rx="19" ry="19" fill="hsl(321, 60%, 80%)" stroke="black" stroke-width="2"/><text x="0" y="0" fill="black" font-family="Arial, Helvetica, sans-serif" font-size="18px" font-weight="normal" font-style="normal" dominant-baseline="middle" text-anchor="middle" transform="translate(20 25)">a</text></g></g><g transform="rotate(18 360 25) translate(360 0)"><g><line x1="0" y1="25" x2="239.2632003628881" y2="25" stroke="black" stroke-width="2"/><polyline points="229.2632003628881,19.226497308103742 239.2632003628881,25 229.2632003628881,30.773502691896258" fill="none" stroke="black" stroke-width="2" stroke-linecap="square"/></g><g transform="translate(169.2632003628881 0)"><ellipse cx="20" cy="25" rx="19" ry="19" fill="hsl(32, 60%, 80%)" stroke="black" stroke-width="2"/><text x="0" y="0" fill="black" font-family="Arial, Helvetica, sans-serif" font-size="18px" font-weight="normal" font-style="normal" dominant-baseline="middle" text-anchor="middle" transform="translate(20 25)">c</text></g><g transform="translate(106.17546690859206 0)"><ellipse cx="20" cy="25" rx="19" ry="19" fill="hsl(32, 60%, 80%)" stroke="black" stroke-width="2"/><text x="0" y="0" fill="black" font-family="Arial, Helvetica, sans-serif" font-size="18px" font-weight="normal" font-style="normal" dominant-baseline="middle" text-anchor="middle" transform="translate(20 25)">c</text></g></g><g transform="rotate(18 210 25) translate(210 0)"><g><line x1="0" y1="25" x2="239.2632003628881" y2="25" stroke="black" stroke-width="2"/><polyline points="229.2632003628881,19.226497308103742 239.2632003628881,25 229.2632003628881,30.773502691896258" fill="none" stroke="black" stroke-width="2" stroke-linecap="square"/></g><g transform="translate(169.2632003628881 0)"><ellipse cx="20" cy="25" rx="19" ry="19" fill="hsl(44, 60%, 80%)" stroke="black" stroke-width="2"/><text x="0" y="0" fill="black" font-family="Arial, Helvetica, sans-serif" font-size="18px" font-weight="normal" font-style="normal" dominant-baseline="middle" text-anchor="middle" transform="translate(20 25)">b</text></g><g transform="translate(106.17546690859206 0)"><ellipse cx="20" cy="25" rx="19" ry="19" fill="hsl(44, 60%, 80%)" stroke="black" stroke-width="2"/><text x="0" y="0" fill="black" font-family="Arial, Helvetica, sans-serif" font-size="18px" font-weight="normal" font-style="normal" dominant-baseline="middle" text-anchor="middle" transform="translate(20 25)">b</text></g></g><g transform="rotate(18 60 25) translate(60 0)"><g><line x1="0" y1="25" x2="302.3509338171841" y2="25" stroke="black" stroke-width="2"/><polyline points="292.3509338171841,19.226497308103742 302.3509338171841,25 292.3509338171841,30.773502691896258" fill="none" stroke="black" stroke-width="2" stroke-linecap="square"/></g><g transform="translate(232.3509338171841 0)"><ellipse cx="20" cy="25" rx="19" ry="19" fill="hsl(321, 60%, 80%)" stroke="black" stroke-width="2"/><text x="0" y="0" fill="black" font-family="Arial, Helvetica, sans-serif" font-size="18px" font-weight="normal" font-style="normal" dominant-baseline="middle" text-anchor="middle" transform="translate(20 25)">a</text></g><g transform="translate(169.2632003628881 0)"><ellipse cx="20" cy="25" rx="19" ry="19" fill="hsl(321, 60%, 80%)" stroke="black" stroke-width="2"/><text x="0" y="0" fill="black" font-family="Arial, Helvetica, sans-serif" font-size="18px" font-weight="normal" font-style="normal" dominant-baseline="middle" text-anchor="middle" transform="translate(20 25)">a</text></g><g transform="translate(106.17546690859206 0)"><ellipse cx="20" cy="25" rx="19" ry="19" fill="hsl(321, 60%, 80%)" stroke="black" stroke-width="2"/><text x="0" y="0" fill="black" font-family="Arial, Helvetica, sans-serif" font-size="18px" font-weight="normal" font-style="normal" dominant-baseline="middle" text-anchor="middle" transform="translate(20 25)">a</text></g></g></g></g></svg>